<svg width="49" height="49" viewBox="0 0 49 49" fill="none" xmlns="http://www.w3.org/2000/svg">
<path d="M24.5 0C11.0173 0 0 11.0327 0 24.5C0 37.9673 11.0327 49 24.5 49C37.9673 49 49 37.9673 49 24.5C49 11.0327 37.9827 0 24.5 0ZM17.7663 36.75H12.666V20.4167H17.7663V36.75ZM15.116 18.167C13.4827 18.167 12.25 16.734 12.25 15.3009C12.25 13.6676 13.4827 12.2346 15.116 12.2346C16.7494 12.2346 17.9821 13.4673 17.9821 15.1006C18.167 16.734 16.7494 18.167 15.116 18.167ZM36.75 36.75H31.6497V28.7836C31.6497 26.95 31.6497 24.5 28.9994 24.5C26.3491 24.5 25.933 26.5494 25.933 28.7836V36.9503H20.8327V20.617H25.7327V22.8667C26.3491 21.634 27.9824 20.2164 30.6327 20.2164C35.733 20.2164 36.7654 23.6833 36.7654 27.9824V36.75H36.75Z" fill="#4C4C4C"/>
</svg>
